<svg fill="currentColor" xmlns="http://www.w3.org/2000/svg"  viewBox="0 0 48 48"><path d="M28,24h-8c0-1.385,0.407-2.995,0.71-4h6.665C27.646,21.017,28,22.617,28,24z M42,21.411V37.5c0,3.038-2.462,5.5-5.5,5.5h-25	C8.462,43,6,40.538,6,37.5V21.413c0-2.299,1.054-4.47,2.859-5.893L23.071,4.321c0.545-0.428,1.312-0.428,1.857,0L39.142,15.52	C40.947,16.942,42,19.113,42,21.411z M25.5,34v-3.166C28.641,30.145,31,27.344,31,24c0-2.712-1.033-5.843-1.077-5.975	C29.719,17.413,29.146,17,28.5,17h-8.875c-0.625,0-1.185,0.388-1.404,0.974C18.171,18.106,17,21.26,17,24	c0,3.344,2.36,6.145,5.5,6.834V34h-2c-0.828,0-1.5,0.672-1.5,1.5s0.672,1.5,1.5,1.5h7c0.828,0,1.5-0.672,1.5-1.5S28.328,34,27.5,34	H25.5z"/></svg>