<?xml version="1.0" encoding="utf-8"?>
<!-- Generator: Adobe Illustrator 16.0.0, SVG Export Plug-In . SVG Version: 6.00 Build 0)  -->
<!DOCTYPE svg PUBLIC "-//W3C//DTD SVG 1.0//EN" "http://www.w3.org/TR/2001/REC-SVG-20010904/DTD/svg10.dtd">
<svg version="1.0" id="Layer_1" xmlns="http://www.w3.org/2000/svg" xmlns:xlink="http://www.w3.org/1999/xlink" x="0px" y="0px"
	fill="currentColor" viewBox="0 0 100 100" enable-background="new 0 0 100 100" xml:space="preserve">
<path d="M50,10c-16.569,0-30,4.479-30,10v6.666c0,12.009,11.67,21.889,26.667,23.185V76.8c-7.607,0.619-13.334,3.308-13.334,6.533
	C33.333,87.015,40.794,90,50,90s16.667-2.985,16.667-6.667c0-3.226-5.727-5.914-13.334-6.533V49.851
	C68.333,48.555,80,38.675,80,26.666V20C80,14.479,66.569,10,50,10z M50,16.666c10.017,0,17.356,1.746,21.126,3.334
	c-3.77,1.588-11.109,3.334-21.126,3.334S32.644,21.588,28.874,20C32.644,18.412,39.983,16.666,50,16.666z M73.333,26.666
	c0,9.037-10.687,16.667-23.333,16.667c-12.649,0-23.333-7.63-23.333-16.667v-0.387C32.168,28.549,40.569,30,50,30
	s17.835-1.451,23.333-3.721V26.666z"/>
</svg>
