<?xml version="1.0" encoding="utf-8"?>
<!-- Generator: Adobe Illustrator 26.1.0, SVG Export Plug-In . SVG Version: 6.00 Build 0)  -->
<svg version="1.1" id="Layer_1" xmlns="http://www.w3.org/2000/svg" xmlns:xlink="http://www.w3.org/1999/xlink" x="0px" y="0px"
	 viewBox="0 0 2692.59 2671.62" style="enable-background:new 0 0 2692.59 2671.62;" xml:space="preserve">
<style type="text/css">
	.st0{fill:#AAABB7;}
	.st1{fill:#151625;}
	.st2{fill:#FFFAF3;}
	.st3{fill:#202138;}
	.st4{fill:#F59F13;}
	.st5{fill:none;}
	.st6{fill:#FBD9A1;}
	.st7{fill:#F8BB57;}
</style>
<g>
	<path class="st0" d="M1346.28,2671.62c-356.81,0-692.26-138.95-944.56-391.25c-252.3-252.3-391.25-587.75-391.25-944.56
		s138.95-692.26,391.25-944.56C654.02,138.95,989.48,0,1346.28,0s692.26,138.95,944.56,391.25
		c252.3,252.3,391.25,587.75,391.25,944.56s-138.95,692.26-391.25,944.56C2038.55,2532.67,1703.09,2671.62,1346.28,2671.62z
		 M1346.28,139.21c-319.62,0-620.11,124.47-846.12,350.47c-226.01,226.01-350.47,526.5-350.47,846.12s124.47,620.11,350.47,846.12
		c226.01,226.01,526.5,350.47,846.12,350.47s620.11-124.47,846.12-350.47c226.01-226.01,350.47-526.5,350.47-846.12
		s-124.47-620.11-350.47-846.12C1966.4,263.68,1665.91,139.21,1346.28,139.21z"/>
	<path class="st1" d="M1346.29,2547.44c-323.64,0-627.91-126.03-856.75-354.88c-228.85-228.85-354.88-533.12-354.88-856.75
		S260.68,707.9,489.53,479.05c228.85-228.85,533.12-354.88,856.75-354.88s627.91,126.03,856.75,354.88
		c228.85,228.85,354.88,533.12,354.88,856.75s-126.03,627.91-354.88,856.75C1974.19,2421.41,1669.92,2547.44,1346.29,2547.44z"/>
	<path class="st2" d="M1346.29,2526.72c-318.1,0-617.17-123.87-842.1-348.81c-224.94-224.93-348.81-524-348.81-842.1
		s123.87-617.17,348.81-842.1c224.93-224.94,524-348.81,842.1-348.81s617.17,123.87,842.1,348.81
		c224.94,224.93,348.81,524,348.81,842.1s-123.87,617.17-348.81,842.1C1963.45,2402.84,1664.39,2526.72,1346.29,2526.72z"/>
	<path class="st3" d="M2348.55,756.54c-101.66-175.6-248.07-322.01-423.67-423.56l-578.59,1002.2h1157.07
		C2503.36,1124.39,2446.99,926.74,2348.55,756.54z"/>
	<path class="st4" d="M189.23,1335.19c0,210.8,56.37,408.44,154.81,578.64c101.61,175.6,248.01,322.01,423.61,423.56l578.64-1002.2
		H189.23z"/>
	<path class="st3" d="M767.65,332.98C592.05,434.54,445.65,580.94,344.1,756.54c-98.5,170.2-154.87,367.85-154.87,578.64H1346.3
		L767.65,332.98z"/>
	<path class="st3" d="M1346.3,1335.19l-578.64,1002.2c170.2,98.5,367.85,154.87,578.64,154.87c210.8,0,408.39-56.37,578.59-154.87
		L1346.3,1335.19z"/>
	<path class="st5" d="M767.66,332.99"/>
	<path class="st4" d="M1346.3,1335.19l578.59,1002.2c175.6-101.55,322.01-247.96,423.61-423.56
		c98.5-170.2,154.86-367.84,154.86-578.64H1346.3z"/>
	<path class="st4" d="M1346.3,178.12c-210.8,0-408.44,56.37-578.64,154.86l578.64,1002.2l578.59-1002.2
		C1754.69,234.49,1557.09,178.12,1346.3,178.12z"/>
	<g>
		<path class="st6" d="M2178.71,1335.81l-512.85-249.46l-3.12,494.61l515.96-242.97
			C2179.61,1337.55,2179.61,1336.25,2178.71,1335.81z"/>
	</g>
	<g>
		<path class="st0" d="M1346.47,1749.42c-164.24,0-312.96-97.17-378.9-247.55c-91.55-208.84,3.85-453.22,212.68-544.79
			c52.79-23.14,108.61-34.88,165.88-34.88c164.24,0,312.96,97.17,378.9,247.55c91.55,208.84-3.85,453.22-212.68,544.79
			C1459.56,1737.69,1403.75,1749.42,1346.47,1749.42z"/>
		<path class="st1" d="M1346.44,1680.71c-136.95,0-260.97-81.03-315.96-206.43c-76.34-174.14,3.21-377.93,177.35-454.28
			c44.02-19.3,90.56-29.08,138.33-29.08c136.95,0,260.97,81.03,315.96,206.43c76.34,174.14-3.21,377.93-177.35,454.29
			C1440.74,1670.92,1394.2,1680.71,1346.44,1680.71z"/>
		
			<ellipse transform="matrix(0.7071 -0.7071 0.7071 0.7071 -550.2385 1343.2253)" class="st2" cx="1346.3" cy="1335.81" rx="306.29" ry="306.29"/>
	</g>
	<g>
		
			<ellipse transform="matrix(0.1602 -0.9871 0.9871 0.1602 -908.986 969.0198)" class="st1" cx="114.98" cy="1018.7" rx="40.4" ry="40.4"/>
		
			<ellipse transform="matrix(0.9239 -0.3827 0.3827 0.9239 -381.088 121.5449)" class="st7" cx="114.98" cy="1018.7" rx="26.37" ry="26.37"/>
	</g>
	<g>
		
			<ellipse transform="matrix(0.9239 -0.3827 0.3827 0.9239 -818.1351 337.166)" class="st1" cx="438.46" cy="2225.1" rx="40.4" ry="40.4"/>
		
			<ellipse transform="matrix(0.1602 -0.9871 0.9871 0.1602 -1828.149 2301.4763)" class="st7" cx="438.46" cy="2225.1" rx="26.37" ry="26.37"/>
	</g>
	<g>
		<circle class="st1" cx="1690.16" cy="2559.6" r="40.4"/>
		<circle class="st7" cx="1690.16" cy="2559.6" r="26.37"/>
	</g>
	<g>
		<circle class="st1" cx="2577.59" cy="1658.62" r="40.4"/>
		<circle class="st7" cx="2577.59" cy="1658.62" r="26.37"/>
	</g>
	<g>
		<circle class="st1" cx="2251.4" cy="441.82" r="40.4"/>
		
			<ellipse transform="matrix(0.2298 -0.9732 0.9732 0.2298 1304.1332 2531.4773)" class="st7" cx="2251.4" cy="441.82" rx="26.37" ry="26.37"/>
	</g>
	<g>
		
			<ellipse transform="matrix(0.1602 -0.9871 0.9871 0.1602 750.5527 1102.1761)" class="st1" cx="1023" cy="110" rx="40.4" ry="40.4"/>
		
			<ellipse transform="matrix(0.9239 -0.3827 0.3827 0.9239 35.7748 399.8594)" class="st7" cx="1023" cy="110" rx="26.37" ry="26.37"/>
	</g>
	<g>
		
			<ellipse transform="matrix(0.2298 -0.9732 0.9732 0.2298 -77.4623 769.1005)" class="st4" cx="447.17" cy="433.49" rx="40.4" ry="40.4"/>
		
			<ellipse transform="matrix(0.2298 -0.9732 0.9732 0.2298 -77.4623 769.1005)" class="st7" cx="447.17" cy="433.49" rx="26.37" ry="26.37"/>
	</g>
	<g>
		<g>
			<circle class="st1" cx="115.56" cy="1656.62" r="40.4"/>
			
				<ellipse transform="matrix(0.7071 -0.7071 0.7071 0.7071 -1137.5597 566.9222)" class="st7" cx="115.56" cy="1656.62" rx="26.37" ry="26.37"/>
		</g>
	</g>
	<g>
		<g>
			
				<ellipse transform="matrix(0.773 -0.6344 0.6344 0.773 -1399.781 1214.806)" class="st1" cx="997.78" cy="2563.57" rx="40.4" ry="40.4"/>
			
				<ellipse transform="matrix(0.4967 -0.8679 0.8679 0.4967 -1722.7876 2156.1658)" class="st7" cx="997.78" cy="2563.57" rx="26.37" ry="26.37"/>
		</g>
	</g>
	<g>
		
			<ellipse transform="matrix(0.2298 -0.9732 0.9732 0.2298 -77.4623 769.1005)" class="st1" cx="447.17" cy="433.49" rx="40.4" ry="40.4"/>
		
			<ellipse transform="matrix(0.2298 -0.9732 0.9732 0.2298 -77.4623 769.1005)" class="st7" cx="447.17" cy="433.49" rx="26.37" ry="26.37"/>
	</g>
	<g>
		<g>
			
				<ellipse transform="matrix(0.5971 -0.8021 0.8021 0.5971 -881.9194 2699.5398)" class="st1" cx="2246.54" cy="2227.76" rx="40.4" ry="40.4"/>
			
				<ellipse transform="matrix(0.5971 -0.8021 0.8021 0.5971 -881.9197 2699.5374)" class="st7" cx="2246.54" cy="2227.76" rx="26.37" ry="26.37"/>
		</g>
	</g>
	<g>
		<circle class="st1" cx="2576.42" cy="998.64" r="40.4"/>
		
			<ellipse transform="matrix(0.9957 -0.0926 0.0926 0.9957 -81.4406 242.994)" class="st7" cx="2576.42" cy="998.64" rx="26.37" ry="26.37"/>
	</g>
	<g>
		<g>
			
				<ellipse transform="matrix(0.7898 -0.6133 0.6133 0.7898 283.0727 1042.5013)" class="st1" cx="1662.74" cy="108.2" rx="40.4" ry="40.4"/>
			
				<ellipse transform="matrix(0.7348 -0.6783 0.6783 0.7348 367.5587 1156.4866)" class="st7" cx="1662.74" cy="108.2" rx="26.37" ry="26.37"/>
		</g>
	</g>
</g>
</svg>
